<?xml version="1.0" encoding="UTF-8"?> <svg xmlns="http://www.w3.org/2000/svg" width="145" height="79" viewBox="0 0 145 79" fill="none"><path d="M12.408 57.2582H5.412V60.4042C5.72 60.0522 6.14533 59.7809 6.688 59.5902C7.24533 59.3849 7.84667 59.2822 8.492 59.2822C9.53333 59.2822 10.406 59.5169 11.11 59.9862C11.814 60.4409 12.3347 61.0569 12.672 61.8342C13.0093 62.6116 13.178 63.4696 13.178 64.4082C13.178 66.1096 12.7013 67.4589 11.748 68.4562C10.7947 69.4389 9.45267 69.9302 7.722 69.9302C6.54867 69.9302 5.52933 69.7249 4.664 69.3142C3.79867 68.8889 3.13133 68.3022 2.662 67.5542C2.19267 66.8062 1.94333 65.9409 1.914 64.9582H5.588C5.66133 65.4569 5.85933 65.8676 6.182 66.1902C6.51933 66.5129 6.974 66.6742 7.546 66.6742C8.206 66.6742 8.69733 66.4616 9.02 66.0362C9.35733 65.6109 9.526 65.0462 9.526 64.3422C9.526 63.6676 9.35 63.1469 8.998 62.7802C8.646 62.4136 8.15467 62.2302 7.524 62.2302C7.04 62.2302 6.63667 62.3402 6.314 62.5602C5.99133 62.7656 5.77133 63.0369 5.654 63.3742H2.002V53.9582H12.408V57.2582ZM18.6687 66.1242V69.8862H14.7747V66.1242H18.6687ZM20.2599 61.9442C20.2599 64.3789 20.7513 66.3076 21.7339 67.7302C22.7166 69.1529 24.2859 69.8642 26.4419 69.8642C28.5833 69.8642 30.1453 69.1529 31.1279 67.7302C32.1253 66.3076 32.6239 64.3789 32.6239 61.9442C32.6239 59.5242 32.1253 57.6102 31.1279 56.2022C30.1453 54.7796 28.5833 54.0682 26.4419 54.0682C24.2859 54.0682 22.7166 54.7796 21.7339 56.2022C20.7513 57.6102 20.2599 59.5242 20.2599 61.9442ZM28.8839 61.9442C28.8839 63.3376 28.7153 64.4156 28.3779 65.1782C28.0553 65.9262 27.4099 66.3002 26.4419 66.3002C25.4593 66.3002 24.7993 65.9262 24.4619 65.1782C24.1246 64.4156 23.9559 63.3376 23.9559 61.9442C23.9559 60.5656 24.1246 59.5022 24.4619 58.7542C24.7993 58.0062 25.4593 57.6322 26.4419 57.6322C27.4099 57.6322 28.0553 58.0062 28.3779 58.7542C28.7153 59.4876 28.8839 60.5509 28.8839 61.9442Z" fill="#1D2030"></path><g clip-path="url(#clip0)"><path d="M14.7783 0.891113H15.8454C19.5501 0.971305 23.1944 2.45485 25.8118 5.08112C24.8454 6.06346 23.8588 7.00571 22.9125 7.98806C21.4427 6.6649 19.6709 5.64246 17.738 5.2816C14.8789 4.68016 11.7984 5.22145 9.40242 6.84533C6.78497 8.5494 5.01315 11.4363 4.6306 14.5237C4.20779 17.5709 5.07356 20.7786 7.06684 23.1442C8.9796 25.4498 11.8991 26.8932 14.9192 26.9934C17.738 27.1538 20.6776 26.2918 22.7313 24.3271C24.342 22.9438 25.087 20.8387 25.3286 18.7939C21.9863 18.7939 18.644 18.8139 15.3017 18.7939V14.664H29.3756C30.1004 19.0946 29.0534 24.0865 25.6709 27.2541C23.4158 29.4994 20.295 30.8226 17.1138 31.0832C14.0333 31.3839 10.8521 30.8025 8.11382 29.319C4.83195 27.5748 2.2145 24.6278 0.925906 21.1595C-0.282148 17.9719 -0.302282 14.3633 0.825235 11.1556C1.85208 8.22863 3.82523 5.64246 6.36215 3.83815C8.79839 2.05389 11.7581 1.07154 14.7783 0.891113Z" fill="#4182BF"></path><path d="M95.5168 1.93213H99.8255V30.5605C98.396 30.5605 96.9463 30.5805 95.5168 30.5404C95.5369 21.0177 95.5168 11.4749 95.5168 1.93213Z" fill="#419640"></path><path d="M38.9598 11.8558C41.6175 11.3546 44.4967 11.916 46.6913 13.4997C48.6846 14.9031 50.0739 17.1084 50.4967 19.5141C51.0403 22.3008 50.3557 25.348 48.5437 27.5533C46.5906 30.0192 43.3893 31.3423 40.2685 31.1419C37.4094 30.9815 34.6309 29.5581 32.9396 27.2325C31.0269 24.6664 30.5638 21.138 31.6108 18.1308C32.6577 14.9031 35.6175 12.4372 38.9598 11.8558ZM39.5638 15.6649C38.4765 15.9456 37.4698 16.5671 36.745 17.4492C34.792 19.7747 34.9128 23.5638 37.0671 25.7289C38.2953 26.9719 40.1477 27.5533 41.8591 27.2125C43.4497 26.9318 44.839 25.8693 45.6041 24.4659C46.9329 22.0802 46.5504 18.7924 44.5168 16.9279C43.2081 15.7251 41.2953 15.2239 39.5638 15.6649Z" fill="#CB201E"></path><path d="M60.302 11.8558C63.3423 11.2744 66.6644 12.1165 68.9396 14.2415C72.6443 17.5494 73.047 23.7442 69.8859 27.5533C67.9731 29.959 64.8725 31.2822 61.8121 31.1419C58.8926 31.0617 56.0134 29.6182 54.2819 27.2325C52.3288 24.6063 51.906 20.9977 53.0134 17.9303C54.1208 14.8029 57.0201 12.4172 60.302 11.8558ZM60.906 15.6649C59.8188 15.9456 58.8121 16.5671 58.0872 17.4291C56.1543 19.7146 56.2349 23.4435 58.3087 25.6287C59.5369 26.9318 61.4496 27.5734 63.2215 27.2125C64.7919 26.9118 66.2013 25.8693 66.9664 24.4659C68.2751 22.0602 67.8926 18.7723 65.8389 16.9079C64.5302 15.705 62.6174 15.2239 60.906 15.6649Z" fill="#EFC92E"></path><path d="M78.4027 13.0187C80.7182 11.5753 83.7987 11.1743 86.2953 12.4173C87.0806 12.7581 87.7249 13.3395 88.349 13.9209C88.3692 13.3796 88.349 12.8183 88.3692 12.2569C89.7182 12.277 91.0672 12.2569 92.4363 12.277V29.9592C92.4162 32.6256 91.7316 35.4523 89.7987 37.397C87.6846 39.5421 84.443 40.2037 81.5235 39.7626C78.4027 39.3015 75.6846 37.0361 74.4765 34.1692C75.6846 33.5879 76.9531 33.1268 78.2014 32.5855C78.9061 34.2294 80.3356 35.6327 82.1276 35.9535C83.9195 36.2743 85.9933 35.8332 87.1611 34.3497C88.4094 32.826 88.4094 30.7411 88.349 28.8766C87.4229 29.7788 86.3557 30.5807 85.0672 30.8814C82.2685 31.6633 79.188 30.701 77.0336 28.8165C74.8591 26.932 73.5705 24.025 73.6913 21.1381C73.7517 17.8703 75.6041 14.7228 78.4027 13.0187ZM82.5705 15.5849C81.3423 15.7853 80.1947 16.467 79.4094 17.4092C77.5168 19.6546 77.5168 23.2432 79.4296 25.4484C80.5168 26.7515 82.2685 27.4733 83.9598 27.2928C85.5504 27.1324 87.0202 26.13 87.8054 24.7467C89.1343 22.4011 88.9128 19.2135 87.1208 17.1686C86.0135 15.9056 84.2417 15.2842 82.5705 15.5849Z" fill="#4182BF"></path><path d="M105 14.041C107.416 11.7956 111.141 11.0338 114.242 12.2166C117.181 13.3193 119.054 16.1059 120 18.9728C115.631 20.7771 111.282 22.5613 106.913 24.3656C107.517 25.5084 108.443 26.5509 109.691 26.9719C111.443 27.5934 113.537 27.3728 115.007 26.2101C115.591 25.769 116.054 25.1876 116.497 24.6263C117.604 25.368 118.711 26.0898 119.819 26.8315C118.248 29.1771 115.611 30.8211 112.772 31.0817C109.631 31.4626 106.289 30.2597 104.255 27.8139C100.913 23.9647 101.235 17.5093 105 14.041ZM107.154 17.7499C106.47 18.7322 106.188 19.9351 106.208 21.1179C109.128 19.915 112.047 18.7122 114.966 17.4892C114.483 16.3666 113.315 15.6849 112.128 15.5045C110.215 15.1637 108.221 16.1861 107.154 17.7499Z" fill="#CB201E"></path></g><path d="M49 53.8862L50.7961 59.4141H56.6085L51.9062 62.8305L53.7023 68.3584L49 64.942L44.2977 68.3584L46.0938 62.8305L41.3915 59.4141H47.2039L49 53.8862Z" fill="#FFC247"></path><path d="M71 53.8862L72.7961 59.4141H78.6085L73.9062 62.8305L75.7023 68.3584L71 64.942L66.2977 68.3584L68.0938 62.8305L63.3915 59.4141H69.2039L71 53.8862Z" fill="#FFC247"></path><path d="M93 53.8862L94.7961 59.4141H100.608L95.9062 62.8305L97.7023 68.3584L93 64.942L88.2977 68.3584L90.0938 62.8305L85.3915 59.4141H91.2039L93 53.8862Z" fill="#FFC247"></path><path d="M115 53.8862L116.796 59.4141H122.608L117.906 62.8305L119.702 68.3584L115 64.942L110.298 68.3584L112.094 62.8305L107.392 59.4141H113.204L115 53.8862Z" fill="#FFC247"></path><path d="M137 53.8862L138.796 59.4141H144.608L139.906 62.8305L141.702 68.3584L137 64.942L132.298 68.3584L134.094 62.8305L129.392 59.4141H135.204L137 53.8862Z" fill="#FFC247"></path><defs><clipPath id="clip0"><rect width="120" height="39" fill="white" transform="translate(0 0.88623)"></rect></clipPath></defs></svg> 